<svg version="1.1" id="Layer_1" xmlns="http://www.w3.org/2000/svg" xmlns:xlink="http://www.w3.org/1999/xlink" x="0px" y="0px"
	 width="100%" viewBox="0 0 512 512" enable-background="new 0 0 512 512" xml:space="preserve">
<path fill="#FEFEFE" opacity="1.000000" stroke="none" 
	d="
M81.000000,513.000000 
	C54.341820,513.000000 27.683636,513.000000 1.019090,513.000000 
	C1.012727,342.396118 1.012727,171.792236 1.012727,1.094178 
	C171.549530,1.094178 342.099152,1.094178 513.000000,1.094178 
	C513.000000,87.355026 513.000000,173.710541 512.620850,260.495697 
	C507.484833,246.676285 502.057770,232.710526 493.156403,220.451675 
	C483.155670,206.678711 473.240784,192.728775 459.943573,181.858719 
	C449.104614,172.998199 438.225861,164.021149 426.467010,156.499130 
	C415.403229,149.421707 403.165100,144.180130 391.476044,138.147583 
	C391.485687,138.134293 391.716583,137.659897 392.084503,137.346313 
	C392.578796,136.925049 393.149811,136.567017 393.737793,136.286453 
	C408.154846,129.407410 418.928406,118.805656 426.765625,104.901291 
	C432.216797,95.230148 431.332245,87.431763 423.036407,80.006348 
	C414.630554,72.482475 404.629303,68.766403 393.504395,68.100945 
	C377.474854,67.142113 363.551239,73.162987 350.505219,81.702759 
	C346.999939,83.997269 343.763733,86.702896 341.164032,88.650429 
	C336.744019,81.629669 333.260559,74.298531 328.161865,68.352417 
	C315.497589,53.583344 298.273804,46.535336 279.765381,42.349152 
	C274.260498,41.104076 268.146027,41.054245 264.394135,45.751904 
	C260.219757,50.978577 256.037933,56.854385 254.152618,63.135899 
	C247.514709,85.252243 267.629089,124.090477 302.712463,118.828026 
	C308.548187,117.952675 314.328705,116.709129 320.760986,115.519951 
	C320.216217,117.734871 319.693695,119.859276 319.128204,122.158295 
	C303.090302,122.158295 287.437103,122.283058 271.786530,122.132736 
	C237.560196,121.804001 206.000671,130.828262 177.153519,149.138351 
	C156.187790,162.445877 139.102722,179.586441 126.828033,201.361099 
	C125.613167,203.516205 123.602676,205.634399 121.436714,206.759506 
	C116.297180,209.429199 110.667511,211.167908 105.577072,213.915024 
	C102.234108,215.719086 98.472588,218.029282 96.643906,221.139130 
	C88.020142,235.804825 79.374886,250.520493 71.924484,265.797333 
	C63.115612,283.859680 60.026161,303.356903 59.663979,323.478821 
	C59.338757,341.547302 61.058144,359.237671 67.129395,376.213379 
	C70.538795,385.746338 74.702133,395.229462 83.871353,401.192169 
	C84.696594,401.728821 85.048958,403.807404 84.824936,405.023254 
	C79.680290,432.944702 79.237770,461.077850 80.660889,489.325165 
	C81.057747,497.202484 80.902161,505.107635 81.000000,513.000000 
z"/>
<path fill="#050404" opacity="1.000000" stroke="none" 
	d="
M81.468658,513.000000 
	C80.902161,505.107635 81.057747,497.202484 80.660889,489.325165 
	C79.237770,461.077850 79.680290,432.944702 84.824936,405.023254 
	C85.048958,403.807404 84.696594,401.728821 83.871353,401.192169 
	C74.702133,395.229462 70.538795,385.746338 67.129395,376.213379 
	C61.058144,359.237671 59.338757,341.547302 59.663979,323.478821 
	C60.026161,303.356903 63.115612,283.859680 71.924484,265.797333 
	C79.374886,250.520493 88.020142,235.804825 96.643906,221.139130 
	C98.472588,218.029282 102.234108,215.719086 105.577072,213.915024 
	C110.667511,211.167908 116.297180,209.429199 121.436714,206.759506 
	C123.602676,205.634399 125.613167,203.516205 126.828033,201.361099 
	C139.102722,179.586441 156.187790,162.445877 177.153519,149.138351 
	C206.000671,130.828262 237.560196,121.804001 271.786530,122.132736 
	C287.437103,122.283058 303.090302,122.158295 319.128204,122.158295 
	C319.693695,119.859276 320.216217,117.734871 320.760986,115.519951 
	C314.328705,116.709129 308.548187,117.952675 302.712463,118.828026 
	C267.629089,124.090477 247.514709,85.252243 254.152618,63.135899 
	C256.037933,56.854385 260.219757,50.978577 264.394135,45.751904 
	C268.146027,41.054245 274.260498,41.104076 279.765381,42.349152 
	C298.273804,46.535336 315.497589,53.583344 328.161865,68.352417 
	C333.260559,74.298531 336.744019,81.629669 341.164032,88.650429 
	C343.763733,86.702896 346.999939,83.997269 350.505219,81.702759 
	C363.551239,73.162987 377.474854,67.142113 393.504395,68.100945 
	C404.629303,68.766403 414.630554,72.482475 423.036407,80.006348 
	C431.332245,87.431763 432.216797,95.230148 426.765625,104.901291 
	C418.928406,118.805656 408.154846,129.407410 393.737793,136.286453 
	C393.149811,136.567017 392.578796,136.925049 392.084503,137.346313 
	C391.716583,137.659897 391.485687,138.134293 391.476044,138.147583 
	C403.165100,144.180130 415.403229,149.421707 426.467010,156.499130 
	C438.225861,164.021149 449.104614,172.998199 459.943573,181.858719 
	C473.240784,192.728775 483.155670,206.678711 493.156403,220.451675 
	C502.057770,232.710526 507.484833,246.676285 512.620850,260.962677 
	C513.000000,283.687561 513.000000,306.375122 512.631348,329.503662 
	C511.784454,328.895508 511.214935,327.877838 510.841492,326.792664 
	C503.956635,306.786407 496.579803,287.001221 485.066101,268.670044 
	C481.757843,264.171417 478.317108,260.167877 475.325989,255.852661 
	C463.136475,238.267273 450.480225,221.101257 435.817017,205.413177 
	C422.262726,190.911438 406.048492,180.114243 388.963013,170.616333 
	C373.182312,161.843750 356.786377,154.191223 338.991119,150.172409 
	C335.280518,149.334396 330.907745,147.132889 327.983612,148.336884 
	C325.158417,149.500168 323.923401,154.329742 321.749084,157.376999 
	C321.000061,158.426697 318.982178,159.856674 318.486359,159.556473 
	C317.088226,158.709946 315.578430,157.196136 315.225006,155.685150 
	C314.752869,153.666397 315.274628,151.398087 315.465393,149.245438 
	C315.745270,146.087585 314.868225,144.284805 311.210938,144.048157 
	C300.505280,143.355408 289.947906,141.896591 279.055145,142.652725 
	C261.759979,143.853333 245.315964,147.823441 229.450180,154.395889 
	C203.494080,165.148285 181.948929,182.008194 163.539062,203.039703 
	C162.408203,204.331635 161.611649,205.916214 160.131470,208.168015 
	C167.663666,208.884262 174.201599,209.470093 180.731598,210.133896 
	C198.061340,211.895538 215.484528,213.047318 232.690598,215.637192 
	C253.764328,218.809219 274.746246,222.765579 295.600342,227.175171 
	C318.083588,231.929245 339.733459,238.464523 357.495605,254.707504 
	C368.341339,264.625641 377.211273,275.186188 381.496460,289.363403 
	C387.582886,309.499878 386.274963,329.425385 380.136261,349.253723 
	C372.712738,373.232269 363.531219,396.253815 345.217133,414.426605 
	C334.351440,425.208435 322.185516,433.980316 307.033752,437.222961 
	C296.655548,439.444000 286.030670,440.949738 275.442444,441.630951 
	C264.516785,442.333893 253.416962,442.490265 242.545273,441.387695 
	C224.184158,439.525543 205.947876,436.445282 187.649719,433.946045 
	C167.371002,431.176208 147.111938,428.398773 128.020691,420.364716 
	C123.165359,418.321472 118.106941,416.760803 112.357384,414.696808 
	C111.979851,427.222809 111.625565,438.977386 111.106430,451.176514 
	C110.961060,472.080719 110.980530,492.540344 111.000000,513.000000 
	C101.312439,513.000000 91.624878,513.000000 81.468658,513.000000 
M102.771423,352.856812 
	C101.802528,365.230652 106.192360,376.670227 114.179909,384.857666 
	C121.171669,392.024353 131.238312,397.128357 140.867004,400.564667 
	C155.133835,405.656281 170.131485,408.839630 184.971939,412.144073 
	C199.004013,415.268555 213.173782,417.914276 227.394958,420.011139 
	C241.962570,422.159088 256.671082,423.548950 271.424500,421.646973 
	C282.384949,420.234009 293.728638,419.974457 304.179871,416.814209 
	C325.050354,410.503357 338.403961,394.630157 348.911530,376.477905 
	C359.434021,358.299805 363.008514,338.059204 363.636658,317.368134 
	C363.862610,309.925385 362.182220,302.424835 361.341248,294.157806 
	C357.587402,286.262054 354.167053,278.179474 349.904358,270.568726 
	C348.347504,267.789093 345.058472,265.624603 342.097443,264.046997 
	C328.184662,256.634460 312.766174,253.888382 297.598053,250.585815 
	C285.812744,248.019791 273.888062,245.989105 261.945679,244.275345 
	C246.631607,242.077759 231.237732,240.436295 215.045654,238.267548 
	C204.875763,237.247574 194.726624,235.826187 184.531250,235.299042 
	C168.085632,234.448746 151.605118,234.293472 135.149475,233.603073 
	C131.033417,233.430405 128.600021,234.998489 126.952484,238.546539 
	C123.835663,245.258820 120.317963,251.802094 117.529297,258.644836 
	C114.691513,265.608063 112.531197,272.847382 109.476303,280.433655 
	C101.665886,303.763214 101.132492,327.749786 102.771423,352.856812 
M387.468933,87.905937 
	C369.990448,88.065094 355.140045,95.429863 340.568268,104.420547 
	C344.198364,110.907173 349.555756,114.388695 355.562866,117.038277 
	C375.451263,125.810524 392.574158,119.430496 408.482880,107.120758 
	C414.711548,102.301193 414.586761,96.582420 407.377716,93.107521 
	C401.562134,90.304298 394.772156,89.522568 387.468933,87.905937 
M271.515167,81.851082 
	C279.469055,98.977142 287.533508,103.805016 305.588715,101.839531 
	C309.853271,101.375298 313.998077,99.885674 318.255524,99.259026 
	C321.997589,98.708237 321.918274,96.870453 320.855682,94.041618 
	C317.412415,84.874832 312.117188,76.884148 303.432129,72.322426 
	C294.662537,67.716316 285.343933,64.040916 276.011017,60.661507 
	C269.615295,58.345638 267.500519,60.084648 268.084717,66.660858 
	C268.518738,71.546776 270.102051,76.330582 271.515167,81.851082 
z"/>
<path fill="#B73C17" opacity="1.000000" stroke="none" 
	d="
M485.140320,269.021851 
	C496.579803,287.001221 503.956635,306.786407 510.841492,326.792664 
	C511.214935,327.877838 511.784454,328.895508 512.631348,329.972290 
	C513.000000,390.954346 513.000000,451.908691 513.000000,513.000000 
	C379.312469,513.000000 245.624893,513.000000 111.468658,513.000000 
	C110.980530,492.540344 110.961060,472.080719 111.466866,451.213440 
	C116.156708,452.870819 120.466942,454.688477 124.461708,457.041748 
	C147.169739,470.418518 171.925354,477.440582 197.830246,480.924835 
	C211.608582,482.778107 225.390076,484.631012 239.201996,486.204376 
	C251.865616,487.646973 264.547455,489.286835 277.264496,489.832489 
	C308.035065,491.152863 338.682404,489.058746 369.166107,484.803162 
	C374.873932,484.006317 381.324890,483.564270 385.897980,480.594696 
	C397.000031,473.385651 407.662170,465.318176 417.656281,456.624786 
	C434.012543,442.397339 446.124298,424.791962 456.349426,405.686981 
	C471.416473,377.535217 480.350403,347.893860 481.063538,315.826385 
	C481.340240,303.384064 482.356354,290.953583 483.243286,278.532532 
	C483.471710,275.333496 484.486694,272.190582 485.140320,269.021851 
z"/>
<path fill="#EE8A48" opacity="1.000000" stroke="none" 
	d="
M485.066101,268.670044 
	C484.486694,272.190582 483.471710,275.333496 483.243286,278.532532 
	C482.356354,290.953583 481.340240,303.384064 481.063538,315.826385 
	C480.350403,347.893860 471.416473,377.535217 456.349426,405.686981 
	C446.124298,424.791962 434.012543,442.397339 417.656281,456.624786 
	C407.662170,465.318176 397.000031,473.385651 385.897980,480.594696 
	C381.324890,483.564270 374.873932,484.006317 369.166107,484.803162 
	C338.682404,489.058746 308.035065,491.152863 277.264496,489.832489 
	C264.547455,489.286835 251.865616,487.646973 239.201996,486.204376 
	C225.390076,484.631012 211.608582,482.778107 197.830246,480.924835 
	C171.925354,477.440582 147.169739,470.418518 124.461708,457.041748 
	C120.466942,454.688477 116.156708,452.870819 111.631714,450.768921 
	C111.625565,438.977386 111.979851,427.222809 112.357384,414.696808 
	C118.106941,416.760803 123.165359,418.321472 128.020691,420.364716 
	C147.111938,428.398773 167.371002,431.176208 187.649719,433.946045 
	C205.947876,436.445282 224.184158,439.525543 242.545273,441.387695 
	C253.416962,442.490265 264.516785,442.333893 275.442444,441.630951 
	C286.030670,440.949738 296.655548,439.444000 307.033752,437.222961 
	C322.185516,433.980316 334.351440,425.208435 345.217133,414.426605 
	C363.531219,396.253815 372.712738,373.232269 380.136261,349.253723 
	C386.274963,329.425385 387.582886,309.499878 381.496460,289.363403 
	C377.211273,275.186188 368.341339,264.625641 357.495605,254.707504 
	C339.733459,238.464523 318.083588,231.929245 295.600342,227.175171 
	C274.746246,222.765579 253.764328,218.809219 232.690598,215.637192 
	C215.484528,213.047318 198.061340,211.895538 180.731598,210.133896 
	C174.201599,209.470093 167.663666,208.884262 160.131470,208.168015 
	C161.611649,205.916214 162.408203,204.331635 163.539062,203.039703 
	C181.948929,182.008194 203.494080,165.148285 229.450180,154.395889 
	C245.315964,147.823441 261.759979,143.853333 279.055145,142.652725 
	C289.947906,141.896591 300.505280,143.355408 311.210938,144.048157 
	C314.868225,144.284805 315.745270,146.087585 315.465393,149.245438 
	C315.274628,151.398087 314.752869,153.666397 315.225006,155.685150 
	C315.578430,157.196136 317.088226,158.709946 318.486359,159.556473 
	C318.982178,159.856674 321.000061,158.426697 321.749084,157.376999 
	C323.923401,154.329742 325.158417,149.500168 327.983612,148.336884 
	C330.907745,147.132889 335.280518,149.334396 338.991119,150.172409 
	C356.786377,154.191223 373.182312,161.843750 388.963013,170.616333 
	C406.048492,180.114243 422.262726,190.911438 435.817017,205.413177 
	C450.480225,221.101257 463.136475,238.267273 475.325989,255.852661 
	C478.317108,260.167877 481.757843,264.171417 485.066101,268.670044 
z"/>
<path fill="#9BADAE" opacity="1.000000" stroke="none" 
	d="
M215.878235,238.555222 
	C231.237732,240.436295 246.631607,242.077759 261.945679,244.275345 
	C273.888062,245.989105 285.812744,248.019791 297.598053,250.585815 
	C312.766174,253.888382 328.184662,256.634460 342.097443,264.046997 
	C345.058472,265.624603 348.347504,267.789093 349.904358,270.568726 
	C354.167053,278.179474 357.587402,286.262054 361.027100,294.696960 
	C356.514679,302.388031 352.128540,309.437744 348.167542,316.718750 
	C343.615295,325.086517 339.023529,333.431976 330.719910,338.658569 
	C324.705200,342.444427 318.358154,345.719727 312.061249,349.036499 
	C291.689880,359.766815 269.349915,363.010071 246.918198,364.699310 
	C230.761353,365.916016 214.439102,364.939270 198.190628,364.931000 
	C196.861282,364.930328 195.523285,364.936554 194.203995,364.798950 
	C182.194519,363.546173 170.144135,362.577179 158.193085,360.901917 
	C145.301880,359.094849 132.510086,356.584808 119.663620,354.449524 
	C114.130127,353.529755 108.568176,352.781189 103.019165,351.954834 
	C101.132492,327.749786 101.665886,303.763214 110.130768,280.176727 
	C111.812859,280.460175 112.907852,280.902527 113.857979,281.555634 
	C127.894653,291.204498 143.347275,296.368103 160.450226,296.045013 
	C169.735184,295.869629 179.106949,296.061707 188.273163,294.839691 
	C201.385117,293.091644 212.990234,287.599457 221.936584,277.412048 
	C223.338013,275.816254 224.408325,273.876923 225.980347,272.492188 
	C237.451157,262.388184 234.477509,246.838791 220.052460,241.467804 
	C218.513000,240.894608 217.262680,239.544769 215.878235,238.555222 
z"/>
<path fill="#527A88" opacity="1.000000" stroke="none" 
	d="
M102.895294,352.405823 
	C108.568176,352.781189 114.130127,353.529755 119.663620,354.449524 
	C132.510086,356.584808 145.301880,359.094849 158.193085,360.901917 
	C170.144135,362.577179 182.194519,363.546173 194.203995,364.798950 
	C195.523285,364.936554 196.861282,364.930328 198.190628,364.931000 
	C214.439102,364.939270 230.761353,365.916016 246.918198,364.699310 
	C269.349915,363.010071 291.689880,359.766815 312.061249,349.036499 
	C318.358154,345.719727 324.705200,342.444427 330.719910,338.658569 
	C339.023529,333.431976 343.615295,325.086517 348.167542,316.718750 
	C352.128540,309.437744 356.514679,302.388031 361.042389,295.093384 
	C362.182220,302.424835 363.862610,309.925385 363.636658,317.368134 
	C363.008514,338.059204 359.434021,358.299805 348.911530,376.477905 
	C338.403961,394.630157 325.050354,410.503357 304.179871,416.814209 
	C293.728638,419.974457 282.384949,420.234009 271.424500,421.646973 
	C256.671082,423.548950 241.962570,422.159088 227.394958,420.011139 
	C213.173782,417.914276 199.004013,415.268555 184.971939,412.144073 
	C170.131485,408.839630 155.133835,405.656281 140.867004,400.564667 
	C131.238312,397.128357 121.171669,392.024353 114.179909,384.857666 
	C106.192360,376.670227 101.802528,365.230652 102.895294,352.405823 
z"/>
<path fill="#C5E8EA" opacity="1.000000" stroke="none" 
	d="
M215.461945,238.411377 
	C217.262680,239.544769 218.513000,240.894608 220.052460,241.467804 
	C234.477509,246.838791 237.451157,262.388184 225.980347,272.492188 
	C224.408325,273.876923 223.338013,275.816254 221.936584,277.412048 
	C212.990234,287.599457 201.385117,293.091644 188.273163,294.839691 
	C179.106949,296.061707 169.735184,295.869629 160.450226,296.045013 
	C143.347275,296.368103 127.894653,291.204498 113.857979,281.555634 
	C112.907852,280.902527 111.812859,280.460175 110.429718,279.942810 
	C112.531197,272.847382 114.691513,265.608063 117.529297,258.644836 
	C120.317963,251.802094 123.835663,245.258820 126.952484,238.546539 
	C128.600021,234.998489 131.033417,233.430405 135.149475,233.603073 
	C151.605118,234.293472 168.085632,234.448746 184.531250,235.299042 
	C194.726624,235.826187 204.875763,237.247574 215.461945,238.411377 
z"/>
<path fill="#579B3D" opacity="1.000000" stroke="none" 
	d="
M387.941711,87.874977 
	C394.772156,89.522568 401.562134,90.304298 407.377716,93.107521 
	C414.586761,96.582420 414.711548,102.301193 408.482880,107.120758 
	C392.574158,119.430496 375.451263,125.810524 355.562866,117.038277 
	C349.555756,114.388695 344.198364,110.907173 340.568268,104.420547 
	C355.140045,95.429863 369.990448,88.065094 387.941711,87.874977 
z"/>
<path fill="#579B3D" opacity="1.000000" stroke="none" 
	d="
M271.344299,81.505478 
	C270.102051,76.330582 268.518738,71.546776 268.084717,66.660858 
	C267.500519,60.084648 269.615295,58.345638 276.011017,60.661507 
	C285.343933,64.040916 294.662537,67.716316 303.432129,72.322426 
	C312.117188,76.884148 317.412415,84.874832 320.855682,94.041618 
	C321.918274,96.870453 321.997589,98.708237 318.255524,99.259026 
	C313.998077,99.885674 309.853271,101.375298 305.588715,101.839531 
	C287.533508,103.805016 279.469055,98.977142 271.344299,81.505478 
z"/>
</svg>